<?xml version="1.0" standalone="no"?><svg xmlns="http://www.w3.org/2000/svg" viewBox="0 0 1440 320"><path fill="#2A82C9" fill-opacity="1" d="M0,224L18.5,208C36.9,192,74,160,111,176C147.7,192,185,256,222,266.7C258.5,277,295,235,332,186.7C369.2,139,406,85,443,106.7C480,128,517,224,554,229.3C590.8,235,628,149,665,122.7C701.5,96,738,128,775,170.7C812.3,213,849,267,886,266.7C923.1,267,960,213,997,181.3C1033.8,149,1071,139,1108,138.7C1144.6,139,1182,149,1218,165.3C1255.4,181,1292,203,1329,213.3C1366.2,224,1403,224,1422,224L1440,224L1440,320L1421.5,320C1403.1,320,1366,320,1329,320C1292.3,320,1255,320,1218,320C1181.5,320,1145,320,1108,320C1070.8,320,1034,320,997,320C960,320,923,320,886,320C849.2,320,812,320,775,320C738.5,320,702,320,665,320C627.7,320,591,320,554,320C516.9,320,480,320,443,320C406.2,320,369,320,332,320C295.4,320,258,320,222,320C184.6,320,148,320,111,320C73.8,320,37,320,18,320L0,320Z"></path></svg>