<?xml version="1.0" standalone="no"?><svg xmlns="http://www.w3.org/2000/svg" viewBox="0 0 1440 320"><path fill="#2A82C9" fill-opacity="1" d="M0,224L18.5,208C36.9,192,74,160,111,176C147.7,192,185,256,222,266.7C258.5,277,295,235,332,186.7C369.2,139,406,85,443,106.7C480,128,517,224,554,229.3C590.8,235,628,149,665,122.7C701.5,96,738,128,775,170.7C812.3,213,849,267,886,266.7C923.1,267,960,213,997,181.3C1033.8,149,1071,139,1108,138.7C1144.6,139,1182,149,1218,165.3C1255.4,181,1292,203,1329,213.3C1366.2,224,1403,224,1422,224L1440,224L1440,0L1421.5,0C1403.1,0,1366,0,1329,0C1292.3,0,1255,0,1218,0C1181.5,0,1145,0,1108,0C1070.8,0,1034,0,997,0C960,0,923,0,886,0C849.2,0,812,0,775,0C738.5,0,702,0,665,0C627.7,0,591,0,554,0C516.9,0,480,0,443,0C406.2,0,369,0,332,0C295.4,0,258,0,222,0C184.6,0,148,0,111,0C73.8,0,37,0,18,0L0,0Z"></path></svg>